# File created by Blade
# Date/Time:  Wed Jan 21 16:14:13 2015
# Frame Rate: 120.000 fps
#------------------------------------------------------
:FULLY-SPECIFIED
:DEGREES
424
root 18.634610 35.705313 -19.456043 -174.052187 -1.770188 -178.685565
Spine -14.608884 1.884164 -1.563130
Head 8.056852 -4.951321 2.956130
LeftShoulder -5.404836 -36.274221 20.426592
LeftArm 0.540293 13.757206 -6.302089
LeftForeArm 17.375092 -0.000000 -3.553765
LeftHand -4.385361 -0.000000 -8.263547
LeftHandThumb1 -26.253704 0.000000 33.147579
RightShoulder -6.323937 -1.929027 -12.851677
RightArm 9.783582 23.134617 11.531218
RightForeArm -37.253852 -0.000000 3.117116
RightHand 2.076146 0.000000 13.683622
RightHandThumb1 -24.326973 -0.000000 -32.862282
LeftUpLeg 0.325711 9.014881 0.522834
LeftLeg -4.810839 -0.000000 0.000000
LeftFoot -19.448172 25.906500 -11.956481
LeftToeBase 25.932853 -0.000000 -0.000000
RightUpLeg -0.867099 -8.582099 1.989672
RightLeg -1.960139 -0.000000 0.000000
RightFoot -20.287711 -25.054091 15.767374
RightToeBase 23.218024 -0.000000 -0.000000
425
root 18.624125 35.701259 -19.480972 -173.819390 -1.906725 -178.675115
Spine -14.781826 1.842465 -1.518172
Head 8.115402 -4.994953 2.884564
LeftShoulder -6.194303 -35.523388 20.986077
LeftArm -0.332339 12.530081 -6.313486
LeftForeArm 17.257189 -0.000000 -3.885668
LeftHand -4.469019 -0.000000 -8.110586
LeftHandThumb1 -26.253704 0.000000 33.147579
RightShoulder -7.138830 -2.510226 -12.973943
RightArm 8.903736 24.137245 11.473205
RightForeArm -36.886718 -0.000000 2.931705
RightHand 2.248768 -0.000000 13.252048
RightHandThumb1 -24.326973 -0.000000 -32.862282
LeftUpLeg 0.107682 8.935674 0.502020
LeftLeg -4.793718 -0.000000 0.000000
LeftFoot -19.523198 25.820922 -11.954720
LeftToeBase 25.953179 -0.000000 -0.000000
RightUpLeg -1.068526 -8.531378 2.018589
RightLeg -1.908333 -0.000000 0.000000
RightFoot -20.369611 -25.212966 15.696315
RightToeBase 23.315308 -0.000000 -0.000000
426
root 18.614319 35.697253 -19.505586 -173.533259 -2.140883 -178.683995
Spine -15.034312 1.760323 -1.505971
Head 8.213852 -5.056878 2.831354
LeftShoulder -6.827046 -34.857337 21.512151
LeftArm -1.358016 11.306623 -6.349488
LeftForeArm 17.194676 -0.000000 -4.076140
LeftHand -4.651937 0.000000 -8.042769
LeftHandThumb1 -26.253704 0.000000 33.147579
RightShoulder -7.998102 -3.127804 -13.137825
RightArm 8.035306 25.157010 11.505388
RightForeArm -37.034402 0.000000 2.902017
RightHand 1.754383 -0.000000 13.309500
RightHandThumb1 -24.326973 -0.000000 -32.862282
LeftUpLeg -0.193578 8.791062 0.454877
LeftLeg -4.749876 -0.000000 0.000000
LeftFoot -19.595949 25.752948 -11.946261
LeftToeBase 26.235560 -0.000000 -0.000000
RightUpLeg -1.298308 -8.591372 2.047694
RightLeg -1.895543 -0.000000 0.000000
RightFoot -20.475840 -25.339461 15.731304
RightToeBase 23.467094 -0.000000 -0.000000
427
root 18.602608 35.693252 -19.527802 -173.217031 -2.355741 -178.701297
Spine -15.316246 1.642722 -1.483071
Head 8.307020 -5.137659 2.753279
LeftShoulder -7.495823 -34.217489 22.058475
LeftArm -2.346150 10.292719 -6.400947
LeftForeArm 16.968878 -0.000000 -4.398102
LeftHand -4.716726 -0.000000 -7.991803
LeftHandThumb1 -26.253704 0.000000 33.147579
RightShoulder -8.814683 -3.733572 -13.327587
RightArm 7.183099 26.243062 11.581000
RightForeArm -37.191563 -0.000000 2.728159
RightHand 1.730507 -0.000000 13.239950
RightHandThumb1 -24.326973 -0.000000 -32.862282
LeftUpLeg -0.518097 8.636093 0.397554
LeftLeg -4.717320 -0.000000 0.000000
LeftFoot -19.662093 25.674925 -11.959620
LeftToeBase 26.272878 -0.000000 -0.000000
RightUpLeg -1.570957 -8.631424 2.070485
RightLeg -1.873833 -0.000000 0.000000
RightFoot -20.598813 -25.428609 15.866401
RightToeBase 23.156142 -0.000000 -0.000000
428
root 18.592461 35.688799 -19.556810 -173.034138 -2.556063 -178.706110
Spine -15.426212 1.529686 -1.434379
Head 8.365606 -5.092777 2.707100
LeftShoulder -8.166116 -33.645811 22.636258
LeftArm -3.436267 9.311715 -6.519903
LeftForeArm 16.673383 -0.000000 -4.597846
LeftHand -4.728064 -0.000000 -8.001340
LeftHandThumb1 -26.253704 0.000000 33.147579
RightShoulder -9.588183 -4.258388 -13.569193
RightArm 6.312175 27.099878 11.715236
RightForeArm -37.298118 -0.000000 2.615479
RightHand 1.438076 0.000000 12.765648
RightHandThumb1 -24.326973 -0.000000 -32.862282
LeftUpLeg -0.673138 8.502255 0.377446
LeftLeg -4.726995 -0.000000 0.000000
LeftFoot -19.681271 25.611445 -11.914738
LeftToeBase 26.317143 -0.000000 -0.000000
RightUpLeg -1.695524 -8.631340 2.085238
RightLeg -1.854560 -0.000000 0.000000
RightFoot -20.713632 -25.563937 15.930208
RightToeBase 23.077177 -0.000000 -0.000000
429
root 18.581277 35.686578 -19.579802 -172.728719 -2.767053 -178.718601
Spine -15.680573 1.366256 -1.380506
Head 8.407293 -5.127498 2.624626
LeftShoulder -8.916207 -33.002019 23.237838
LeftArm -4.472231 8.305384 -6.649431
LeftForeArm 16.572478 -0.000000 -4.777236
LeftHand -4.982075 -0.000000 -7.738147
LeftHandThumb1 -26.253704 0.000000 33.147579
RightShoulder -10.261685 -4.728578 -13.829372
RightArm 5.301064 27.836484 11.782325
RightForeArm -37.616281 0.000000 2.506720
RightHand 1.602384 -0.000000 12.472678
RightHandThumb1 -24.326973 -0.000000 -32.862282
LeftUpLeg -0.982287 8.378323 0.327304
LeftLeg -4.705471 -0.000000 0.000000
LeftFoot -19.702286 25.539909 -11.885540
LeftToeBase 26.323334 -0.000000 -0.000000
RightUpLeg -1.982315 -8.727887 2.123033
RightLeg -1.787808 -0.000000 0.000000
RightFoot -20.833335 -25.662229 15.970976
RightToeBase 23.122626 -0.000000 -0.000000
430
root 18.570322 35.683515 -19.600449 -172.376738 -3.007249 -178.747816
Spine -15.981057 1.208581 -1.370058
Head 8.415322 -5.150363 2.600930
LeftShoulder -9.617407 -32.380121 23.947947
LeftArm -5.606673 7.660020 -6.985288
LeftForeArm 16.146605 -0.000000 -4.876589
LeftHand -5.175812 -0.000000 -7.510660
LeftHandThumb1 -26.253704 0.000000 33.147579
RightShoulder -11.004244 -5.213006 -14.125395
RightArm 4.280501 28.591769 11.954435
RightForeArm -37.666777 0.000000 2.494590
RightHand 1.416411 -0.000000 12.266939
RightHandThumb1 -24.326973 -0.000000 -32.862282
LeftUpLeg -1.361820 8.230687 0.260924
LeftLeg -4.647538 -0.000000 0.000000
LeftFoot -19.742646 25.426165 -11.883840
LeftToeBase 26.379415 -0.000000 -0.000000
RightUpLeg -2.289830 -8.760427 2.143533
RightLeg -1.759693 -0.000000 0.000000
RightFoot -20.943075 -25.834350 15.946811
RightToeBase 23.160639 -0.000000 -0.000000
431
root 18.559248 35.680252 -19.625364 -172.082137 -3.224619 -178.766671
Spine -16.218453 1.004642 -1.321820
Head 8.409119 -5.082748 2.569006
LeftShoulder -10.250327 -31.900998 24.617924
LeftArm -6.941990 7.158353 -7.282952
LeftForeArm 16.043868 -0.000000 -4.820348
LeftHand -5.482778 0.000000 -7.159940
LeftHandThumb1 -26.253704 0.000000 33.147579
RightShoulder -11.676625 -5.709045 -14.457253
RightArm 3.304956 29.105928 12.197169
RightForeArm -37.638119 -0.000000 2.490124
RightHand 1.118229 -0.000000 12.126030
RightHandThumb1 -24.326973 -0.000000 -32.862282
LeftUpLeg -1.668949 8.135351 0.212355
LeftLeg -4.596433 -0.000000 0.000000
LeftFoot -19.793091 25.276781 -11.880619
LeftToeBase 26.391680 -0.000000 -0.000000
RightUpLeg -2.547410 -8.795304 2.158901
RightLeg -1.706362 -0.000000 0.000000
RightFoot -20.992083 -25.948763 15.927892
RightToeBase 23.055451 -0.000000 -0.000000
432
root 18.549347 35.677436 -19.637430 -171.677455 -3.387976 -178.806963
Spine -16.558802 0.854851 -1.314550
Head 8.383007 -5.075425 2.502524
LeftShoulder -10.834145 -31.440500 25.327439
LeftArm -8.351873 7.093082 -7.707870
LeftForeArm 16.065018 -0.000000 -4.677388
LeftHand -5.792109 0.000000 -6.960866
LeftHandThumb1 -26.253704 0.000000 33.147579
RightShoulder -12.178800 -5.889955 -14.932961
RightArm 1.886538 29.382128 12.400092
RightForeArm -37.799510 0.000000 2.698648
RightHand 0.861178 0.000000 11.969045
RightHandThumb1 -24.326973 -0.000000 -32.862282
LeftUpLeg -2.114690 8.065845 0.117768
LeftLeg -4.522888 -0.000000 0.000000
LeftFoot -19.826026 25.189445 -11.851224
LeftToeBase 26.397051 -0.000000 -0.000000
RightUpLeg -2.953804 -8.699387 2.172563
RightLeg -1.635861 -0.000000 0.000000
RightFoot -21.155166 -26.163663 15.994355
RightToeBase 23.034518 -0.000000 -0.000000
433
root 18.539135 35.674162 -19.658226 -171.334914 -3.598074 -178.819836
Spine -16.817635 0.630276 -1.242725
Head 8.241698 -5.043231 2.423178
LeftShoulder -11.483502 -30.951454 26.086898
LeftArm -9.810113 7.581268 -8.362668
LeftForeArm 16.032287 -0.000000 -4.396182
LeftHand -6.002575 -0.000000 -6.863791
LeftHandThumb1 -26.253704 0.000000 33.147579
RightShoulder -12.624660 -6.008379 -15.481520
RightArm 0.376718 29.532719 12.655735
RightForeArm -38.026573 -0.000000 3.048630
RightHand 0.664516 -0.000000 11.725259
RightHandThumb1 -24.326973 -0.000000 -32.862282
LeftUpLeg -2.474536 7.957726 0.069823
LeftLeg -4.478974 -0.000000 0.000000
LeftFoot -19.877748 25.074203 -11.857215
LeftToeBase 26.474961 -0.000000 -0.000000
RightUpLeg -3.289006 -8.737720 2.218715
RightLeg -1.548480 -0.000000 0.000000
RightFoot -21.299012 -26.329299 15.986533
RightToeBase 23.122195 -0.000000 -0.000000
434
root 18.530225 35.670266 -19.681850 -171.091887 -3.796933 -178.841969
Spine -16.968983 0.463781 -1.197949
Head 8.170200 -5.069769 2.314869
LeftShoulder -11.957585 -30.477467 26.695832
LeftArm -11.250273 8.581976 -9.154306
LeftForeArm 15.734375 -0.000000 -4.223507
LeftHand -6.431870 -0.000000 -6.440971
LeftHandThumb1 -26.253704 0.000000 33.147579
RightShoulder -13.069769 -6.194117 -15.982486
RightArm -1.167494 29.520218 12.913962
RightForeArm -37.891068 0.000000 3.496200
RightHand 0.269297 -0.000000 11.584410
RightHandThumb1 -24.326973 -0.000000 -32.862282
LeftUpLeg -2.725452 7.868304 0.028670
LeftLeg -4.438809 -0.000000 0.000000
LeftFoot -19.917580 24.952390 -11.839576
LeftToeBase 26.477117 -0.000000 -0.000000
RightUpLeg -3.513762 -8.763551 2.238139
RightLeg -1.471809 -0.000000 0.000000
RightFoot -21.440960 -26.473470 16.038656
RightToeBase 23.041392 -0.000000 -0.000000
435
root 18.521832 35.667549 -19.699941 -170.808157 -3.899631 -178.865897
Spine -17.152104 0.387107 -1.167588
Head 8.033769 -5.035926 2.196287
LeftShoulder -12.392074 -29.894101 27.288690
LeftArm -12.823465 9.613489 -10.074882
LeftForeArm 15.778277 -0.000000 -3.813049
LeftHand -6.851848 -0.000000 -6.292318
LeftHandThumb1 -26.253704 0.000000 33.147579
RightShoulder -13.526189 -6.516458 -16.609849
RightArm -2.654271 29.520270 13.494049
RightForeArm -37.592600 -0.000000 4.150008
RightHand -0.589615 -0.000000 11.258120
RightHandThumb1 -24.326973 -0.000000 -32.862282
LeftUpLeg -3.015919 7.862335 -0.032867
LeftLeg -4.398951 -0.000000 0.000000
LeftFoot -19.960791 24.849826 -11.842381
LeftToeBase 26.372035 -0.000000 -0.000000
RightUpLeg -3.798283 -8.674353 2.247372
RightLeg -1.390577 -0.000000 0.000000
RightFoot -21.575406 -26.646000 16.069942
RightToeBase 23.083192 -0.000000 -0.000000
